<?xml version="1.0" encoding="UTF-8"?>
<svg width="70px" height="70px" viewBox="0 0 70 70" version="1.1" xmlns="http://www.w3.org/2000/svg" xmlns:xlink="http://www.w3.org/1999/xlink">
    <!-- Generator: Sketch 54.1 (76490) - https://sketchapp.com -->
    <title>03</title>
    <desc>Created with Sketch.</desc>
    <g id="Main" stroke="none" stroke-width="1" fill="none" fill-rule="evenodd">
        <g id="LeGrandePlaneteVerte_Main01" transform="translate(-361.000000, -234.000000)">
            <g id="Content" transform="translate(-108.000000, 118.000000)">
                <g id="03" transform="translate(504.000000, 151.000000) scale(-1, 1) translate(-504.000000, -151.000000) translate(469.000000, 116.000000)">
                    <path d="M56.2916502,0.198720325 L56.2824396,0.207930851 C56.0208607,0.469509798 56.0162554,0.890430851 56.271387,1.15753611 L63.5698081,8.79398348 C63.8369133,9.07398348 63.8617817,9.48016769 63.6324396,9.71043085 C63.4030975,9.93977296 62.9959923,9.91490454 62.7159923,9.64779927 L55.0353344,2.3070098 C54.7930975,2.07582559 54.4108607,2.0795098 54.1732291,2.31622032 L54.1649396,2.32543085 C53.9282291,2.56214138 53.9236238,2.94529927 54.1557291,3.18753611 L61.4965186,10.868194 C61.7636238,11.147273 61.7884923,11.5543782 61.5582291,11.7837203 C61.328887,12.0139835 60.9217817,11.9891151 60.6427028,11.7220098 L52.9620449,4.38122032 C52.7198081,4.14911506 52.3366502,4.15372032 52.0999396,4.39043085 L52.0907291,4.39964138 C51.8540186,4.6363519 51.8494133,5.01858875 52.0815186,5.26082559 L59.4223081,12.9424045 C59.6894133,13.2214835 59.7142817,13.6285887 59.4849396,13.8579309 C59.2546765,14.087273 58.8484923,14.0633256 58.5684923,13.7962203 L50.8878344,6.4545098 C50.6455975,6.22332559 50.2624396,6.22793085 50.0257291,6.46464138 L50.0174396,6.47293085 C49.7798081,6.70964138 49.7761238,7.09279927 50.0073081,7.33503611 L57.3480975,15.015694 C57.6152028,15.295694 57.6400712,15.7018782 57.4107291,15.9321414 C57.181387,16.1614835 56.7742817,16.1366151 56.4942817,15.8695098 L48.8136238,8.52872032 C48.571387,8.29753611 48.1891502,8.30122032 47.9515186,8.5388519 L47.9432291,8.54714138 C47.7065186,8.7838519 47.7019133,9.1670098 47.9330975,9.40924664 L55.2748081,17.0899045 C55.5419133,17.3689835 55.5667817,17.7760887 55.3365186,18.0054309 C55.1071765,18.235694 54.7000712,18.2108256 54.4209923,17.9437203 L46.7403344,10.6029309 C46.4980975,10.3708256 46.1149396,10.3754309 45.8782291,10.6121414 L45.8690186,10.6213519 C45.6323081,10.8580624 45.6277028,11.2402993 45.8598081,11.4825361 L53.2005975,19.1641151 C53.4677028,19.443194 53.4925712,19.8502993 53.2623081,20.0796414 C53.032966,20.3099045 52.6258607,20.2850361 52.3467817,20.0179309 L44.6661238,12.6762203 C44.423887,12.4450361 44.0407291,12.4496414 43.8040186,12.6863519 L43.7957291,12.6946414 C43.5580975,12.932273 43.5544133,13.3145098 43.7855975,13.5567466 L51.126387,21.2374045 C51.3934923,21.5174045 51.4183607,21.9245098 51.1890186,22.1538519 C50.9587554,22.383194 50.5525712,22.3583256 50.2725712,22.0912203 L42.5919133,14.7504309 C42.3496765,14.5192466 41.9674396,14.5229309 41.7298081,14.7605624 L41.7215186,14.7688519 C41.4848081,15.0055624 41.4802028,15.3887203 41.711387,15.6309572 L49.0530975,23.3116151 C49.3202028,23.590694 49.3441502,23.9977993 49.1148081,24.2280624 C48.885466,24.4574045 48.4783607,24.4325361 48.1992817,24.1654309 L40.5177028,16.8246414 C40.275466,16.5925361 39.8932291,16.5971414 39.6565186,16.8338519 L39.6473081,16.8430624 C39.4105975,17.079773 39.4059923,17.4629309 39.6380975,17.7051677 L46.978887,25.3858256 C47.2459923,25.6649045 47.2708607,26.0720098 47.0405975,26.3013519 C46.8112554,26.5316151 46.4041502,26.5067466 46.1250712,26.2396414 L38.4444133,18.8979309 C38.2021765,18.6667466 37.8190186,18.6713519 37.5823081,18.9080624 L37.5740186,18.9163519 C37.336387,19.1539835 37.3327028,19.5362203 37.563887,19.7784572 L44.9046765,27.4591151 C45.1717817,27.7391151 45.1966502,28.1462203 44.9673081,28.3755624 C44.7370449,28.6049045 44.3308607,28.5800361 44.0508607,28.3129309 L36.3702028,20.9721414 C36.127966,20.7409572 35.7448081,20.7446414 35.5080975,20.982273 L35.4998081,20.9905624 C35.2630975,21.227273 35.2584923,21.6104309 35.4896765,21.8526677 L42.831387,29.5333256 C43.0984923,29.8133256 43.1224396,30.2195098 42.8930975,30.449773 C42.6637554,30.6791151 42.2566502,30.6542466 41.9775712,30.3871414 L34.2959923,23.0463519 C34.0537554,22.8142466 33.6715186,22.8188519 33.4348081,23.0555624 L33.4255975,23.064773 C33.188887,23.3014835 33.1842817,23.6846414 33.416387,23.9268782 L40.7571765,31.6075361 C41.0242817,31.8866151 41.0491502,32.2937203 40.818887,32.5230624 C40.5895449,32.7533256 40.1824396,32.7284572 39.9033607,32.4613519 L32.2227028,25.1205624 C31.980466,24.8884572 31.5973081,24.8930624 31.3605975,25.129773 L31.351387,25.1380624 C31.1146765,25.375694 31.1109923,25.7579309 31.3421765,26.0001677 L38.682966,33.6817466 C38.9500712,33.9608256 38.9749396,34.3679309 38.7455975,34.597273 C38.5153344,34.8266151 38.1091502,34.8017466 37.8291502,34.5346414 L30.1484923,27.1938519 C29.9062554,26.9626677 29.5230975,26.967273 29.286387,27.2039835 L29.2780975,27.212273 C29.041387,27.4489835 29.0367817,27.8321414 29.267966,28.0743782 L36.6087554,35.7550361 C36.8758607,36.0350361 36.9007291,36.4412203 36.671387,36.6714835 C36.4420449,36.9008256 36.0349396,36.8759572 35.7558607,36.6088519 L28.0742817,29.2680624 C27.8320449,29.0368782 27.4498081,29.0405624 27.2121765,29.277273 L27.203887,29.2864835 C26.9671765,29.523194 26.9625712,29.9063519 27.1946765,30.1485887 L34.535466,37.8292466 C34.8025712,38.1083256 34.8274396,38.5154309 34.5971765,38.744773 C34.3678344,38.9750361 33.9607291,38.9501677 33.6816502,38.6830624 L26.0009923,31.342273 C25.7587554,31.1101677 25.3755975,31.114773 25.138887,31.3514835 L25.1296765,31.360694 C24.892966,31.5974045 24.8883607,31.9796414 25.120466,32.2218782 L32.4612554,39.9034572 C32.7283607,40.1825361 32.7532291,40.5896414 32.523887,40.8189835 C32.2936238,41.0483256 31.8874396,41.0243782 31.6074396,40.757273 L23.9267817,33.4155624 C23.6845449,33.1843782 23.301387,33.1889835 23.0646765,33.425694 L23.056387,33.4339835 C22.8187554,33.670694 22.8150712,34.0538519 23.0462554,34.2960887 L30.3870449,41.9767466 C30.6541502,42.2567466 30.6790186,42.6629309 30.4496765,42.893194 C30.2203344,43.1225361 29.8132291,43.0976677 29.5332291,42.8305624 L21.8525712,35.489773 C21.6103344,35.2585887 21.2280975,35.262273 20.990466,35.4999045 L20.9821765,35.508194 C20.745466,35.7449045 20.7408607,36.1280624 20.9720449,36.3702993 L28.3137554,44.0509572 C28.5808607,44.3300361 28.6057291,44.7371414 28.375466,44.9664835 C28.1461238,45.1967466 27.7390186,45.1718782 27.4599396,44.904773 L19.7792817,37.5639835 C19.5370449,37.3318782 19.153887,37.3364835 18.9171765,37.573194 L18.907966,37.5824045 C18.6712554,37.8191151 18.6666502,38.2013519 18.8987554,38.4435887 L26.2395449,46.1251677 C26.5066502,46.4042466 26.5315186,46.8113519 26.3021765,47.040694 C26.0719133,47.2700361 25.6648081,47.2460887 25.3857291,46.9789835 L17.7050712,39.637273 C17.4628344,39.4060887 17.0796765,39.410694 16.842966,39.6474045 L16.8346765,39.655694 C16.5970449,39.8933256 16.5933607,40.2755624 16.8245449,40.5177993 L24.1653344,48.1984572 C24.4324396,48.4784572 24.4573081,48.8846414 24.227966,49.1149045 C23.9977028,49.3442466 23.5915186,49.3193782 23.3115186,49.052273 L15.6308607,41.7114835 C15.3886238,41.4802993 15.006387,41.4839835 14.7687554,41.7216151 L14.760466,41.7299045 C14.5237554,41.9666151 14.5191502,42.349773 14.7503344,42.5920098 L22.0920449,50.2726677 C22.3591502,50.5517466 22.3830975,50.9588519 22.1537554,51.1891151 C21.9244133,51.4184572 21.5173081,51.3935887 21.2382291,51.1264835 L13.5566502,43.785694 C13.3144133,43.5535887 12.9321765,43.558194 12.695466,43.7949045 L12.6862554,43.8041151 C12.4495449,44.0408256 12.4449396,44.4239835 12.6770449,44.6662203 L20.0178344,52.3468782 C20.2849396,52.6259572 20.3098081,53.0330624 20.0795449,53.2624045 C19.8502028,53.4926677 19.4430975,53.4677993 19.1640186,53.200694 L11.4833607,45.8589835 C11.2411238,45.6277993 10.857966,45.6324045 10.6212554,45.8691151 L10.612966,45.8774045 C10.3753344,46.1150361 10.3716502,46.497273 10.6028344,46.7395098 L17.9436238,54.4201677 C18.2107291,54.7001677 18.2355975,55.107273 18.0062554,55.3366151 C17.7759923,55.5659572 17.3698081,55.5410887 17.0898081,55.2739835 L9.40915017,47.933194 C9.16691332,47.7020098 8.78375543,47.705694 8.5470449,47.9433256 L8.53875543,47.9516151 C8.3020449,48.1883256 8.29743964,48.5714835 8.52862385,48.8137203 L15.8703344,56.4943782 C16.1374396,56.7743782 16.161387,57.1805624 15.9320449,57.4108256 C15.7027028,57.6401677 15.2955975,57.6152993 15.0165186,57.348194 L7.33493964,50.0074045 C7.0927028,49.7752993 6.71046595,49.7799045 6.47375543,50.0166151 L6.4645449,50.0258256 C6.22783438,50.2625361 6.22322911,50.645694 6.45533438,50.8879309 L13.7961238,58.5685887 C14.0632291,58.8476677 14.0880975,59.254773 13.8578344,59.4841151 C13.6284923,59.7143782 13.221387,59.6895098 12.9423081,59.4224045 L5.26165017,52.080694 C5.01941332,51.8495098 4.63625543,51.8541151 4.3995449,52.0908256 L4.39125543,52.0991151 C4.15362385,52.3367466 4.14993964,52.7189835 4.38112385,52.9612203 L11.7219133,60.6418782 C11.9890186,60.9218782 12.013887,61.3289835 11.7845449,61.5583256 C11.5542817,61.7876677 11.1480975,61.7627993 10.8680975,61.495694 L3.18743964,54.1549045 C2.9452028,53.9237203 2.5620449,53.9283256 2.32533438,54.1650361 L2.3170449,54.1733256 C2.08033438,54.4100361 2.07572911,54.793194 2.30691332,55.0354309 L9.64862385,62.7160887 C9.91480806,62.9960887 9.93967648,63.402273 9.71033438,63.6325361 C9.48099227,63.8618782 9.07388701,63.8370098 8.79480806,63.5699045 L1.15743964,56.2714835 C0.891255428,56.0163519 0.469413323,56.0209572 0.208755428,56.2816151 L0.199544902,56.2908256 C-0.0509814138,56.5413519 -0.0675603612,56.9410887 0.160860691,57.2100361 L9.2645449,67.953194 C10.6350712,69.5714835 13.237966,69.5788519 15.1933607,67.9909572 C34.6082291,52.2216151 52.2049396,34.6212203 67.9899396,15.1934572 C69.5787554,13.2380624 69.571387,10.6351677 67.9530975,9.26372032 L57.2108607,0.160957167 C56.9409923,-0.0674638859 56.5412554,-0.0508849386 56.2916502,0.198720325" id="Fill-94" fill="#9013FE"></path>
                    <path d="M11.3608607,64.5379309 C10.8994133,64.9993782 10.8690186,65.7380624 11.2908607,66.2363519 C11.6473081,66.657273 12.6503344,66.6342466 13.518887,65.9287203 C23.1052028,58.1430624 32.3737554,49.7863519 41.0666502,41.0934572 C49.761387,32.3987203 58.126387,23.1209572 65.9286238,13.5189835 C66.6341502,12.6495098 66.6571765,11.6464835 66.2362554,11.2900361 C65.737966,10.868194 65.0002028,10.8985887 64.5387554,11.3600361 L11.3608607,64.5379309" id="Fill-95" fill="#AE52FF"></path>
                </g>
            </g>
        </g>
    </g>
</svg>