<?xml version="1.0" encoding="UTF-8"?>
<svg width="74px" height="74px" viewBox="0 0 74 74" version="1.1" xmlns="http://www.w3.org/2000/svg" xmlns:xlink="http://www.w3.org/1999/xlink">
    <!-- Generator: Sketch 54.1 (76490) - https://sketchapp.com -->
    <title>02</title>
    <desc>Created with Sketch.</desc>
    <g id="Main" stroke="none" stroke-width="1" fill="none" fill-rule="evenodd">
        <g id="LeGrandePlaneteVerte_Main01" transform="translate(-1285.000000, -232.000000)">
            <g id="Content" transform="translate(-108.000000, 118.000000)">
                <g id="02" transform="translate(1430.000000, 151.000000) scale(-1, -1) translate(-1430.000000, -151.000000) translate(1393.000000, 114.000000)">
                    <polyline id="Fill-55" fill="#878787" points="62.8093524 27.912 45.4733524 10.577 49.9513524 6.098 67.2873524 23.434 62.8093524 27.912"></polyline>
                    <path d="M42.0303524,49.598 C32.5553524,57.928 22.3093524,65.501 11.9363524,72.735 C8.47935236,76.192 -2.80664764,64.906 0.650352359,61.45 C7.88435236,51.076 15.4573524,40.83 23.7873524,31.355 C30.3563524,23.881 37.3853524,16.881 45.0713524,10.679 L62.7063524,28.314 C56.5053524,36.001 49.5043524,43.029 42.0303524,49.598" id="Fill-56" fill="#4A90E2"></path>
                    <path d="M42.0303524,49.598 C32.5553524,57.928 22.3093524,65.501 11.9363524,72.735 L0.650352359,61.45 C7.88435236,51.076 15.4573524,40.83 23.7873524,31.355 C28.8713524,28.293 35.5393524,28.937 39.9093524,33.307 L40.0793524,33.476 C44.4493524,37.846 45.0923524,44.514 42.0303524,49.598" id="Fill-57" fill="#7DB4F5"></path>
                    <polyline id="Fill-58" fill="#3C3C3B" points="61.7483524 28.973 44.4123524 11.637 48.8913524 7.159 66.2263524 24.495 61.7483524 28.973"></polyline>
                    <polyline id="Fill-59" fill="#575756" points="41.1603524 16.127 39.9223524 14.89 54.8133524 0 56.0503524 1.237 41.1603524 16.127"></polyline>
                    <polyline id="Fill-60" fill="#575756" points="43.6363524 18.604 42.3993524 17.366 57.2893524 2.476 58.5273524 3.714 43.6363524 18.604"></polyline>
                    <polyline id="Fill-61" fill="#575756" points="46.1133524 21.08 44.8763524 19.843 59.7663524 4.953 61.0033524 6.19 46.1133524 21.08"></polyline>
                    <polyline id="Fill-62" fill="#575756" points="48.5893524 23.557 47.3523524 22.319 62.2423524 7.429 63.4803524 8.667 48.5893524 23.557"></polyline>
                    <polyline id="Fill-63" fill="#575756" points="51.0663524 26.033 49.8293524 24.796 64.7193524 9.906 65.9563524 11.143 51.0663524 26.033"></polyline>
                    <polyline id="Fill-64" fill="#575756" points="53.5423524 28.51 52.3053524 27.272 67.1953524 12.382 68.4333524 13.62 53.5423524 28.51"></polyline>
                    <polyline id="Fill-65" fill="#575756" points="56.0193524 30.986 54.7823524 29.749 69.6723524 14.859 70.9093524 16.096 56.0193524 30.986"></polyline>
                    <polyline id="Fill-66" fill="#575756" points="58.4963524 33.463 57.2583524 32.225 72.1483524 17.335 73.3863524 18.573 58.4963524 33.463"></polyline>
                    <path d="M52.7313524,33.037 C52.1773524,33.591 51.2803524,33.591 50.7273524,33.037 L40.3483524,22.658 C39.7953524,22.105 39.7953524,21.208 40.3483524,20.655 C40.9013524,20.101 41.7983524,20.101 42.3513524,20.655 L52.7313524,31.034 C53.2843524,31.587 53.2843524,32.484 52.7313524,33.037" id="Fill-67" fill="#3C3C3B"></path>
                    <path d="M29.3293524,48.134 C28.2033524,49.26 26.3783524,49.26 25.2523524,48.134 C24.1263524,47.008 24.1263524,45.182 25.2523524,44.056 L33.0633524,36.245 C34.1893524,35.119 36.0153524,35.119 37.1413524,36.245 C38.2673524,37.371 38.2673524,39.196 37.1413524,40.322 L29.3293524,48.134" id="Fill-68" fill="#9D9D9C"></path>
                    <path d="M29.7603524,43.626 C29.0253524,42.891 29.0253524,41.696 29.7593524,40.962 L33.6653524,37.056 C34.3993524,36.322 35.5943524,36.322 36.3293524,37.057 C37.0633524,37.791 37.0633524,38.986 36.3293524,39.721 L32.4233524,43.626 C31.6893524,44.36 30.4943524,44.36 29.7603524,43.626" id="Fill-69" fill="#878787"></path>
                    <path d="M25.9593524,47.426 C25.2243524,46.692 25.2243524,45.497 25.9593524,44.763 L29.8643524,40.857 C30.5983524,40.123 31.7933524,40.123 32.5283524,40.857 C33.2633524,41.592 33.2633524,42.787 32.5283524,43.521 L28.6233524,47.427 C27.8883524,48.161 26.6943524,48.161 25.9593524,47.426" id="Fill-70" fill="#575756"></path>
                </g>
            </g>
        </g>
    </g>
</svg>