<?xml version="1.0" encoding="UTF-8"?>
<svg width="71px" height="66px" viewBox="0 0 71 66" version="1.1" xmlns="http://www.w3.org/2000/svg" xmlns:xlink="http://www.w3.org/1999/xlink">
    <!-- Generator: Sketch 54.1 (76490) - https://sketchapp.com -->
    <title>04</title>
    <desc>Created with Sketch.</desc>
    <g id="Main" stroke="none" stroke-width="1" fill="none" fill-rule="evenodd">
        <g id="LeGrandePlaneteVerte_Main01" transform="translate(-1287.000000, -729.000000)">
            <g id="Content" transform="translate(-108.000000, 118.000000)">
                <g id="04" transform="translate(1388.000000, 599.000000)">
                    <g id="Group-4" transform="translate(42.000000, 41.500000) rotate(-45.000000) translate(-42.000000, -41.500000) translate(19.000000, 6.000000)">
                        <path d="M7.34658327,70.4284938 C4.20158327,66.1764938 1.73258327,60.6884938 0.509583267,54.4074938 C-2.39541673,39.6374938 7.40858327,24.9944938 22.5635833,24.9814938 C37.7195833,24.9944938 47.5215833,39.6374938 44.6185833,54.4074938 C43.3955833,60.6884938 40.9275833,66.1764938 37.7815833,70.4284938 L7.34658327,70.4284938" id="Fill-155" fill="#FFD2A1"></path>
                        <polygon id="Fill-156" fill="#FFD2A1" points="15.6345833 29.1394938 29.4905833 29.1394938 29.4905833 24.0444938 15.6345833 24.0444938"></polygon>
                        <polygon id="Fill-157" fill="#F56C40" points="15.6345833 24.0444938 29.4905833 24.0444938 29.4905833 14.6304938 15.6345833 14.6304938"></polygon>
                        <polygon id="Fill-158" fill="#FFD2A1" points="18.3615833 14.6304938 26.7665833 14.6304938 26.7665833 12.6254938 18.3615833 12.6254938"></polygon>
                        <polygon id="Fill-159" fill="#F56C40" points="21.2745833 12.6254938 23.8535833 12.6254938 23.8535833 6.59349383 21.2745833 6.59349383"></polygon>
                        <polygon id="Fill-160" fill="#FFD2A1" points="20.1995833 6.59349383 24.9285833 6.59349383 24.9285833 2.61149383 20.1995833 2.61149383"></polygon>
                        <path d="M5.53058327,3.78049383 C5.56458327,3.96049383 10.5415833,2.45049383 17.1925833,3.34749383 C23.8435833,4.24449383 28.6015833,1.54349383 28.3645833,0.258493834 C28.2075833,-0.584506166 23.2305833,0.924493834 16.7015833,0.690493834 C10.1715833,0.456493834 5.41458327,3.15549383 5.53058327,3.78049383" id="Fill-161" fill="#FFD2A1"></path>
                        <path d="M36.2495833,37.9834938 C39.0165833,42.0674938 40.1885833,47.3904938 39.1365833,52.7394938 C38.2175833,57.4614938 36.3625833,61.5844938 33.9985833,64.7784938 L11.1305833,64.7784938 C8.76658327,61.5844938 6.90958327,57.4614938 5.99058327,52.7394938 C4.94058327,47.3904938 6.11058327,42.0674938 8.87558327,37.9834938 L36.2495833,37.9834938" id="Fill-162" fill="#F56C40"></path>
                    </g>
                </g>
            </g>
        </g>
    </g>
</svg>