<?xml version="1.0" encoding="UTF-8"?>
<svg width="877px" height="666px" viewBox="0 0 877 666" version="1.1" xmlns="http://www.w3.org/2000/svg" xmlns:xlink="http://www.w3.org/1999/xlink">
    <!-- Generator: Sketch 54.1 (76490) - https://sketchapp.com -->
    <title>Combined Shape</title>
    <desc>Created with Sketch.</desc>
    <defs>
        <path d="M1239.17727,200.570742 C1277.54032,211.655836 1308.1879,242.930779 1315.66688,284.199874 C1326.27011,342.694779 1286.3902,398.915345 1226.623,409.767459 C1218.3551,411.272591 1210.15002,411.738553 1202.09644,411.418666 C1208.53154,478.801987 1161.27612,541.272364 1092.01792,553.8441 C1056.7588,560.25293 1022.34032,552.451761 994.654408,534.71561 C978.857641,560.694855 952.226694,580.219044 919.570805,586.147119 C882.772653,592.831459 847.046094,580.709044 822.510297,556.793345 C812.640551,562.911874 801.505216,567.366251 789.344477,569.574025 C738.525078,578.797119 689.994824,545.961572 680.97681,496.2201 C679.629928,488.788742 679.349096,481.429496 679.827618,474.195987 C627.748173,463.889345 584.947249,423.631685 575.084893,369.215798 C563.452561,305.046138 601.584662,243.285798 662.297826,221.668478 C656.213761,211.208364 651.724154,199.646213 649.447942,187.087421 C638.733854,127.95644 679.022076,71.1330813 739.448865,60.1644775 C774.550944,53.7907794 808.642399,64.3692322 833.22069,85.8830058 C842.75972,44.2829303 876.803138,10.0938737 922.244246,1.84338318 C976.075193,-7.92888097 1027.63547,22.0498737 1045.83224,70.5062511 C1061.55325,57.6904398 1080.66826,48.4802888 1102.14263,44.5806285 C1168.67011,32.5044398 1232.17866,75.4894586 1243.98097,140.596591 C1247.74632,161.372591 1245.74355,181.873081 1239.17727,200.570742 Z M792.513069,11.1607794 C792.513069,11.1607794 612.171267,13.7420624 612.705216,146.018025 C612.705216,146.018025 586.105678,-10.0164659 792.513069,11.1607794 Z M1304.33755,432.758628 C1304.33755,432.758628 1415.89967,290.935987 1312.89182,208.050176 C1312.89182,208.050176 1450.75787,285.631044 1304.33755,432.758628 Z" id="path-1"></path>
        <filter x="-9.4%" y="-7.7%" width="118.8%" height="125.5%" filterUnits="objectBoundingBox" id="filter-2">
            <feOffset dx="0" dy="30" in="SourceAlpha" result="shadowOffsetOuter1"></feOffset>
            <feGaussianBlur stdDeviation="20" in="shadowOffsetOuter1" result="shadowBlurOuter1"></feGaussianBlur>
            <feColorMatrix values="0 0 0 0 0.906452009   0 0 0 0 0.952898551   0 0 0 0 0.9141931  0 0 0 1 0" type="matrix" in="shadowBlurOuter1"></feColorMatrix>
        </filter>
    </defs>
    <g id="Main" stroke="none" stroke-width="1" fill="none" fill-rule="evenodd">
        <g id="LeGrandePlaneteVerte_Main01" transform="translate(-425.000000, -215.000000)">
            <g id="Content" transform="translate(-108.000000, 118.000000)">
                <g id="Cloud" transform="translate(0.000000, 106.000000)">
                    <g id="Combined-Shape">
                        <use fill="black" fill-opacity="1" filter="url(#filter-2)" xlink:href="#path-1"></use>
                        <use fill="#FFFFFE" fill-rule="evenodd" xlink:href="#path-1"></use>
                    </g>
                </g>
            </g>
        </g>
    </g>
</svg>