<?xml version="1.0" encoding="UTF-8"?>
<svg width="72px" height="78px" viewBox="0 0 72 78" version="1.1" xmlns="http://www.w3.org/2000/svg" xmlns:xlink="http://www.w3.org/1999/xlink">
    <!-- Generator: Sketch 54.1 (76490) - https://sketchapp.com -->
    <title>01</title>
    <desc>Created with Sketch.</desc>
    <g id="Main" stroke="none" stroke-width="1" fill="none" fill-rule="evenodd">
        <g id="LeGrandePlaneteVerte_Main01" transform="translate(-360.000000, -719.000000)">
            <g id="Content" transform="translate(-108.000000, 118.000000)">
                <g id="01" transform="translate(468.000000, 601.000000)">
                    <path d="M26.8752375,50.5924421 L30.5571685,44.8048421 L30.5555134,44.8032 L64.886272,1.42108547e-14 C55.4410306,4.58968421 29.5086168,36.3455368 26.0112375,42.1536632 C25.2813065,43.3663579 25.6272375,44.4534316 26.7933065,45.3631579 C27.2724789,45.7367368 27.384203,45.8623579 27.6432375,46.0175368 L25.5196513,49.5973263 L26.8752375,50.5924421" id="Fill-46" fill="#9D9D9C"></path>
                    <path d="M29.2901341,48.1104 L26.9232375,46.7490947 C26.6153754,46.5717474 26.2214444,46.6793053 26.0468237,46.9872 L19.1853065,59.1100421 L24.2261341,57.1288421 L29.5069616,49.0020632 C29.7047548,48.6982737 29.6054444,48.2918526 29.2901341,48.1104" id="Fill-48" fill="#44A15B"></path>
                    <path d="M20.7709616,44.5478526 L26.5979961,40.8843158 L26.5996513,40.8859579 L71.9091685,6.95431579 C67.3011685,16.3340211 34.7389616,42.0510316 28.9334444,45.6012632 C27.9486168,46.2030947 26.8694444,45.7318105 26.0675134,44.9041895 C25.6901341,44.5150105 25.5378582,44.0338737 25.3814444,43.7768842 L21.7764789,45.8910947 L20.7709616,44.5478526" id="Fill-49" fill="#C6C6C6"></path>
                    <path d="M2.61040993,42.1356 C1.59661682,44.1406105 1.73730648,46.5298737 2.98034096,48.4035158 C4.22337544,50.2771579 6.3800651,51.3502737 8.63689268,51.2189053 C10.8937203,51.0875368 12.9088927,49.7722105 13.9226858,47.7672 C14.9364789,45.7621895 14.7957892,43.3729263 13.5527548,41.4992842 C12.3097203,39.6256421 10.1530306,38.5525263 7.89620303,38.6838947 C5.63937544,38.8152632 3.62420303,40.1305895 2.61040993,42.1356 Z M7.78282372,36.7642737 C10.7315134,36.5926737 13.5477892,37.9950316 15.1715134,40.4425895 C16.7952375,42.8893263 16.9797892,46.0109684 15.6548237,48.6293053 C14.3306858,51.2484632 11.6981341,52.9669263 8.75027199,53.1385263 C5.80158234,53.3101263 2.98530648,51.9077684 1.36158234,49.4602105 C-0.262141799,47.0126526 -0.446693523,43.8918316 0.878271994,41.2734947 C2.20240993,38.6543368 4.83496165,36.9358737 7.78282372,36.7642737 L7.78282372,36.7642737 Z" id="Fill-50" fill="#44A15B"></path>
                    <path d="M23.2677892,42.1470947 L24.6448927,44.4928421 C24.8244789,44.7982737 24.7168927,45.1899158 24.4073754,45.3631579 L12.1996513,52.1934947 L14.188341,47.1883579 L22.3698582,41.9344421 C22.6752375,41.7373895 23.0848927,41.8342737 23.2677892,42.1470947" id="Fill-51" fill="#44A15B"></path>
                    <path d="M67.5676513,10.2056842 C58.1058582,21.4770947 32.6724789,41.4508421 27.6068237,44.5478526 C27.0291685,44.9009053 26.4208927,44.8779158 25.8531685,44.6381684 C25.9168927,44.7284842 25.9847548,44.8196211 26.0675134,44.9041895 C26.8694444,45.7318105 27.9486168,46.2030947 28.9334444,45.6012632 C34.7389616,42.0510316 67.3011685,16.3340211 71.9091685,6.95431579 L67.5676513,10.2056842" id="Fill-52" fill="#EDEDED"></path>
                    <path d="M29.0964789,42.5157474 L27.3370306,44.2645895 C27.8310996,44.5774105 28.4939961,44.5207579 28.9251685,44.0921684 C29.356341,43.6635789 29.4126168,43.0059158 29.0964789,42.5157474" id="Fill-53" fill="#878787"></path>
                    <path d="M28.7414444,42.1536632 C28.2440651,41.8153895 27.5596513,41.8638316 27.1177203,42.3022737 C26.6766168,42.7415368 26.6286168,43.4205474 26.9712375,43.9131789 L28.7414444,42.1536632" id="Fill-54" fill="#878787"></path>
                    <path d="M29.3381341,68.6038737 C27.5886168,69.4815789 25.5494444,69.5004632 23.8189616,68.6802316 C23.5400651,68.5562526 23.2810306,68.4133895 23.0211685,68.2508211 C21.7516513,67.4305895 20.8578582,66.1998316 20.4440651,64.8163579 C20.2230996,64.1201053 20.136203,63.3860842 20.1750996,62.6413895 C20.3000651,60.3999158 21.6266858,58.3965474 23.6360651,57.3948632 C25.6553754,56.3841474 28.0785479,56.5179789 29.9538582,57.7479158 C31.848203,58.9786737 32.9439272,61.1158737 32.8090306,63.3474947 C32.6840651,65.5897895 31.3574444,67.5923368 29.3381341,68.6038737 Z M34.7513754,63.4624421 C34.9152375,60.5337474 33.4917892,57.7479158 31.0206168,56.1361895 C28.5593754,54.5334947 25.4054444,54.3618947 22.7712375,55.6780421 C20.136203,56.9941895 18.4057203,59.6084211 18.2426858,62.5371158 C18.1458582,64.2917053 18.6175823,66.0183789 19.550272,67.4593263 C20.1651685,68.3936842 20.9828237,69.2237684 21.9635134,69.8535158 C22.694272,70.3305474 23.4920651,70.6836 24.2997892,70.9118526 C24.5886168,70.9882105 24.8766168,71.0456842 25.1654444,71.0842737 L25.2134444,71.0933053 C26.8959272,71.37 28.636341,71.1130105 30.2128927,70.3305474 C32.8570306,69.0045474 34.5784099,66.3812842 34.7513754,63.4624421 L34.7513754,63.4624421 Z" id="Fill-47" fill="#44A15B"></path>
                    <path d="M20.7138582,77.5229684 C17.6559272,74.4702947 18.4537203,70.7788421 19.550272,67.4593263 C19.848203,66.534 20.1750996,65.6562947 20.4440651,64.8163579 C20.8578582,66.1998316 21.7516513,67.4305895 23.0211685,68.2508211 C23.2810306,68.4133895 23.5400651,68.5562526 23.8189616,68.6802316 C24.1748237,69.4906105 23.6269616,69.3288632 25.2134444,71.0933053 L25.1654444,71.0842737 C24.8476513,70.9980632 24.5786858,70.9405895 24.2997892,70.9118526 C20.7899961,70.4446737 20.5599272,74.2412211 22.1753754,76.0918737 C23.5400651,77.6370947 21.7806168,78.5821263 20.7138582,77.5229684" id="Fill-44" fill="#44A15B"></path>
                </g>
            </g>
        </g>
    </g>
</svg>