<svg width="72" height="78" viewBox="0 0 72 78" xmlns="http://www.w3.org/2000/svg">
    <title>
        01
    </title>
    <g fill="none" fill-rule="evenodd">
        <path d="M26.875 50.592l3.682-5.787-.001-.002L64.886 0C55.441 4.59 29.51 36.346 26.011 42.154c-.73 1.212-.384 2.3.782 3.21.48.373.591.498.85.654l-2.123 3.58 1.355.994" fill="#9D9D9C"/>
        <path d="M29.29 48.11l-2.367-1.36a.64.64 0 0 0-.876.237L19.185 59.11l5.041-1.981 5.281-8.127a.631.631 0 0 0-.217-.892" fill="#44A15B"/>
        <path d="M20.771 44.548l5.827-3.664.002.002L71.91 6.954c-4.609 9.38-37.171 35.097-42.977 38.647-.984.602-2.064.13-2.865-.697-.378-.389-.53-.87-.687-1.127l-3.605 2.114-1.005-1.343" fill="#C6C6C6"/>
        <path d="M2.61 42.136a6.237 6.237 0 0 0 .37 6.268 6.344 6.344 0 0 0 5.657 2.815 6.33 6.33 0 0 0 5.286-3.452 6.237 6.237 0 0 0-.37-6.268 6.344 6.344 0 0 0-5.657-2.815 6.33 6.33 0 0 0-5.286 3.452zm5.173-5.372a8.287 8.287 0 0 1 7.389 3.679 8.144 8.144 0 0 1 .483 8.186 8.269 8.269 0 0 1-6.905 4.51 8.287 8.287 0 0 1-7.388-3.679 8.144 8.144 0 0 1-.484-8.187 8.269 8.269 0 0 1 6.905-4.509z" fill="#44A15B"/>
        <path d="M23.268 42.147l1.377 2.346a.63.63 0 0 1-.238.87L12.2 52.193l1.988-5.005 8.182-5.254a.64.64 0 0 1 .898.213" fill="#44A15B"/>
        <path d="M67.568 10.206C58.106 21.477 32.672 41.45 27.607 44.548c-.578.353-1.186.33-1.754.09.064.09.132.182.215.266.801.828 1.88 1.3 2.865.697 5.806-3.55 38.368-29.267 42.976-38.647l-4.341 3.252" fill="#EDEDED"/>
        <path d="M29.096 42.516l-1.759 1.749a1.283 1.283 0 0 0 1.588-.173 1.259 1.259 0 0 0 .171-1.576" fill="#878787"/>
        <path d="M28.741 42.154a1.284 1.284 0 0 0-1.623.148 1.258 1.258 0 0 0-.147 1.611l1.77-1.76" fill="#878787"/>
        <path d="M29.338 68.604a6.3 6.3 0 0 1-5.519.076 6.371 6.371 0 0 1-.798-.43 6.201 6.201 0 0 1-2.577-3.434 6.117 6.117 0 0 1-.269-2.175 6.26 6.26 0 0 1 3.461-5.246 6.365 6.365 0 0 1 6.318.353c1.894 1.23 2.99 3.368 2.855 5.6a6.278 6.278 0 0 1-3.47 5.256zm5.413-5.142a8.2 8.2 0 0 0-3.73-7.326 8.33 8.33 0 0 0-8.25-.458 8.183 8.183 0 0 0-4.528 6.86 8.24 8.24 0 0 0 1.307 4.921 8.217 8.217 0 0 0 2.414 2.395c.73.477 1.528.83 2.336 1.058.289.076.577.134.865.172l.048.01a8.235 8.235 0 0 0 9.538-7.63v-.002z" fill="#44A15B"/>
        <path d="M20.714 77.523c-3.058-3.053-2.26-6.744-1.164-10.064.298-.925.625-1.803.894-2.643a6.201 6.201 0 0 0 2.577 3.435c.26.162.52.305.798.43.356.81-.192.648 1.394 2.412l-.048-.009a5.325 5.325 0 0 0-.865-.172c-3.51-.467-3.74 3.33-2.125 5.18 1.365 1.545-.394 2.49-1.461 1.431" fill="#44A15B"/>
    </g>
</svg>
