<svg width="74" height="74" viewBox="0 0 74 74" xmlns="http://www.w3.org/2000/svg">
    <title>
        02
    </title>
    <g fill="none" fill-rule="evenodd">
        <path fill="#878787" d="M11.19 46.088l17.337 17.335-4.478 4.479L6.713 50.566l4.478-4.478"/>
        <path d="M31.97 24.402c9.475-8.33 19.72-15.903 30.094-23.137C65.52-2.192 76.807 9.094 73.35 12.55c-7.234 10.374-14.807 20.62-23.137 30.095-6.57 7.474-13.598 14.474-21.284 20.676L11.294 45.686c6.2-7.687 13.202-14.715 20.676-21.284" fill="#4A90E2"/>
        <path d="M31.97 24.402c9.475-8.33 19.72-15.903 30.094-23.137L73.35 12.55c-7.234 10.374-14.807 20.62-23.137 30.095-5.084 3.062-11.752 2.418-16.122-1.952l-.17-.169c-4.37-4.37-5.013-11.038-1.951-16.122" fill="#7DB4F5"/>
        <path fill="#3C3C3B" d="M12.252 45.027l17.336 17.336-4.48 4.478L7.775 49.505l4.478-4.478"/>
        <path fill="#575756" d="M32.84 57.873l1.238 1.237L19.187 74l-1.237-1.237 14.89-14.89"/>
        <path fill="#575756" d="M30.364 55.396l1.237 1.238-14.89 14.89-1.238-1.238 14.89-14.89"/>
        <path fill="#575756" d="M27.887 52.92l1.237 1.237-14.89 14.89-1.237-1.237 14.89-14.89"/>
        <path fill="#575756" d="M25.41 50.443l1.238 1.238-14.89 14.89-1.238-1.238 14.89-14.89"/>
        <path fill="#575756" d="M22.934 47.967l1.237 1.237-14.89 14.89-1.237-1.237 14.89-14.89"/>
        <path fill="#575756" d="M20.458 45.49l1.237 1.238-14.89 14.89-1.238-1.238 14.89-14.89"/>
        <path fill="#575756" d="M17.98 43.014l1.238 1.237-14.89 14.89-1.237-1.237 14.89-14.89"/>
        <path fill="#575756" d="M15.504 40.537l1.238 1.238-14.89 14.89-1.238-1.238 14.89-14.89"/>
        <path d="M21.269 40.963a1.416 1.416 0 0 1 2.004 0l10.379 10.379a1.417 1.417 0 0 1-2.003 2.003l-10.38-10.379a1.417 1.417 0 0 1 0-2.003" fill="#3C3C3B"/>
        <path d="M44.67 25.866a2.883 2.883 0 1 1 4.078 4.078l-7.811 7.811a2.884 2.884 0 0 1-4.078-4.077l7.812-7.812" fill="#9D9D9C"/>
        <path d="M44.24 30.374c.735.735.735 1.93 0 2.664l-3.905 3.906a1.886 1.886 0 0 1-2.664-.001 1.887 1.887 0 0 1 0-2.664l3.906-3.905a1.886 1.886 0 0 1 2.663 0" fill="#878787"/>
        <path d="M48.04 26.574a1.884 1.884 0 0 1 0 2.663l-3.904 3.906a1.885 1.885 0 0 1-2.664-2.664l3.905-3.906a1.886 1.886 0 0 1 2.664.001" fill="#575756"/>
    </g>
</svg>
