<svg width="71" height="66" viewBox="0 0 71 66" xmlns="http://www.w3.org/2000/svg">
    <title>
        04
    </title>
    <g fill="none" fill-rule="evenodd">
        <path d="M48.63 65.267c-5.23-.783-10.857-2.918-16.164-6.494-12.498-8.39-15.92-25.677-5.212-36.402 10.726-10.708 28.011-7.285 36.402 5.212 3.577 5.306 5.712 10.932 6.494 16.163l-21.52 21.52" fill="#FFD2A1"/>
        <path fill="#FFD2A1" d="M25.294 30.21l9.798-9.797-3.603-3.603-9.797 9.798z"/>
        <path fill="#F56C40" d="M21.692 26.608l9.797-9.798-6.656-6.657-9.798 9.798z"/>
        <path fill="#FFD2A1" d="M16.963 18.023l5.943-5.943-1.417-1.418-5.944 5.943z"/>
        <path fill="#F56C40" d="M17.605 14.545l1.824-1.823-4.265-4.266-1.824 1.824z"/>
        <path fill="#FFD2A1" d="M12.58 11.04l3.344-3.344-2.816-2.815-3.344 3.344z"/>
        <path d="M.218 19.424c.151.103 2.603-4.484 7.94-8.553C13.496 6.803 14.95 1.528 13.874.787c-.707-.485-3.16 4.101-7.942 8.553C1.15 13.792-.306 19.064.218 19.424" fill="#FFD2A1"/>
        <path d="M46.125 21.887c4.844.931 9.437 3.867 12.475 8.393 2.69 3.989 4.293 8.216 4.88 12.146l-16.17 16.17c-3.93-.587-8.159-2.19-12.147-4.878-4.525-3.04-7.462-7.631-8.394-12.474l19.356-19.357" fill="#F56C40"/>
    </g>
</svg>
