<svg width="70" height="70" viewBox="0 0 70 70" xmlns="http://www.w3.org/2000/svg">
    <title>
        03
    </title>
    <g fill="none" fill-rule="evenodd">
        <path d="M13.708.199l.01.009a.679.679 0 0 1 .01.95L6.43 8.794c-.267.28-.292.686-.062.916.229.23.636.205.916-.062l7.68-7.341a.617.617 0 0 1 .863.01l.008.008c.237.237.241.62.01.863l-7.342 7.68c-.267.28-.291.686-.061.916.23.23.636.205.915-.062l7.681-7.34a.616.616 0 0 1 .862.008l.01.01a.615.615 0 0 1 .008.86l-7.34 7.682c-.267.28-.292.687-.063.916.23.23.637.205.917-.062l7.68-7.341a.617.617 0 0 1 .862.01l.009.008c.237.237.24.62.01.862l-7.341 7.68c-.267.28-.292.687-.063.917.23.23.637.205.917-.062l7.68-7.341a.616.616 0 0 1 .862.01l.009.008c.236.237.241.62.01.862l-7.342 7.68c-.267.28-.292.687-.062.916.23.23.637.206.916-.061l7.68-7.341a.616.616 0 0 1 .863.01l.009.008a.615.615 0 0 1 .01.862l-7.342 7.681c-.267.28-.292.686-.061.916.229.23.636.205.915-.062l7.68-7.342a.617.617 0 0 1 .863.01l.008.009c.238.237.242.62.01.862l-7.34 7.68c-.267.28-.292.688-.063.917.23.23.636.204.916-.063l7.681-7.34a.616.616 0 0 1 .862.01l.008.008c.237.237.242.62.01.862l-7.341 7.68c-.267.28-.291.687-.062.917.23.23.637.205.916-.063l7.681-7.34a.615.615 0 0 1 .861.009l.01.01c.236.236.241.619.009.861l-7.34 7.68c-.268.28-.293.687-.063.916.23.23.637.206.916-.061l7.68-7.342a.617.617 0 0 1 .863.01l.008.008c.238.238.241.62.01.862l-7.34 7.681c-.268.28-.293.687-.063.917.23.229.636.204.916-.063l7.68-7.34a.616.616 0 0 1 .863.01l.008.008c.237.236.242.62.01.862l-7.341 7.68c-.267.28-.291.687-.062.917.23.23.636.204.915-.063l7.682-7.34a.615.615 0 0 1 .861.009l.01.009c.236.236.24.62.009.862l-7.341 7.68c-.267.28-.292.687-.062.916.23.23.637.205.916-.062l7.68-7.34a.616.616 0 0 1 .862.009l.01.008c.236.238.24.62.009.862l-7.341 7.682c-.267.279-.292.686-.063.915.23.23.637.205.917-.062l7.68-7.341a.617.617 0 0 1 .863.01l.008.008c.237.237.241.62.01.862l-7.34 7.681c-.268.28-.293.686-.063.916.229.23.636.205.915-.062l7.682-7.34a.617.617 0 0 1 .862.008l.008.01c.237.236.241.62.01.862l-7.341 7.68c-.268.28-.292.686-.062.916.23.23.636.205.915-.062L44 31.343a.616.616 0 0 1 .862.008l.01.01a.615.615 0 0 1 .009.86l-7.341 7.682c-.267.28-.292.687-.063.916.23.23.637.205.917-.062l7.68-7.341a.617.617 0 0 1 .862.01l.009.008c.237.237.24.62.01.862l-7.341 7.68c-.267.28-.292.687-.063.917.23.23.637.205.917-.062l7.68-7.341a.616.616 0 0 1 .863.01l.008.008c.237.237.241.62.01.862l-7.342 7.681c-.267.279-.292.686-.061.915.229.23.636.206.915-.061l7.68-7.341a.616.616 0 0 1 .863.01l.009.008a.615.615 0 0 1 .01.862l-7.342 7.681c-.267.28-.292.686-.062.916.23.229.637.205.916-.062l7.68-7.342a.617.617 0 0 1 .863.01l.008.009c.238.237.242.62.01.862l-7.34 7.68c-.267.28-.292.687-.063.917.23.23.636.204.916-.063l7.681-7.34a.616.616 0 0 1 .862.01l.009.008c.236.237.24.62.01.862l-7.342 7.68c-.267.28-.291.687-.062.917.23.23.637.205.916-.063l7.681-7.34a.615.615 0 0 1 .862.009l.009.01c.236.236.241.619.009.861l-7.34 7.68c-.268.28-.293.687-.063.916.23.23.637.206.916-.061l7.68-7.342a.617.617 0 0 1 .863.01l.008.008c.238.238.241.62.01.863l-7.34 7.68c-.268.28-.293.687-.063.917.23.229.636.204.916-.063l7.68-7.34a.616.616 0 0 1 .863.01l.008.008c.237.236.242.62.01.862l-7.341 7.68c-.267.28-.291.687-.062.917.23.23.636.204.915-.063l7.682-7.34a.615.615 0 0 1 .861.009l.01.009c.236.237.24.62.009.862l-7.341 7.68c-.267.28-.292.687-.062.916.23.23.637.206.916-.062l7.68-7.341a.617.617 0 0 1 .862.01l.009.008c.237.238.241.62.01.862l-7.34 7.68c-.268.28-.293.688-.064.917.23.23.637.205.917-.062l7.68-7.341a.617.617 0 0 1 .863.01l.008.008c.237.237.241.62.01.862l-7.342 7.681c-.266.28-.29.686-.061.917.229.229.636.204.915-.063l7.638-7.299a.678.678 0 0 1 .948.01l.01.01c.25.25.267.65.038.919l-9.104 10.743c-1.37 1.618-3.973 1.626-5.928.038A361.56 361.56 0 0 1 2.01 15.193c-1.589-1.955-1.581-4.558.037-5.93L12.789.162a.68.68 0 0 1 .92.038" fill="#9013FE"/>
        <path d="M58.64 64.538c.46.461.491 1.2.07 1.698-.357.421-1.36.398-2.229-.307a360.722 360.722 0 0 1-27.548-24.836A361.935 361.935 0 0 1 4.071 13.52c-.705-.87-.728-1.873-.307-2.229a1.254 1.254 0 0 1 1.697.07L58.64 64.538" fill="#AE52FF"/>
    </g>
</svg>
